<mxfile host="app.diagrams.net" modified="2022-06-17T13:58:46.387Z" agent="5.0 (Windows NT 10.0; Win64; x64) AppleWebKit/537.36 (KHTML, like Gecko) Chrome/102.0.0.0 Safari/537.36" etag="0nVlEwUVI9IV6CBcaNw8" version="19.0.0" type="github">
  <diagram id="vfEqKP0jAzs9FGb_3GJn" name="Page-1">
    <mxGraphModel dx="1038" dy="585" grid="0" gridSize="10" guides="1" tooltips="1" connect="1" arrows="1" fold="1" page="1" pageScale="1" pageWidth="850" pageHeight="1100" math="0" shadow="0">
      <root>
        <mxCell id="0" />
        <mxCell id="1" parent="0" />
        <mxCell id="OLguAmvcdXXNK4KZTNF1-1" value="&lt;h2&gt;&lt;b&gt;Amazon Inspector&lt;/b&gt;&lt;/h2&gt;" style="shadow=0;dashed=0;html=1;strokeColor=#d79b00;fillColor=#FFB570;labelPosition=center;verticalLabelPosition=bottom;verticalAlign=top;align=center;outlineConnect=0;shape=mxgraph.veeam.magnifying_glass;pointerEvents=1;" vertex="1" parent="1">
          <mxGeometry x="300" y="120" width="320" height="330" as="geometry" />
        </mxCell>
        <mxCell id="OLguAmvcdXXNK4KZTNF1-3" value="Amazon ECR" style="sketch=0;outlineConnect=0;fontColor=#232F3E;gradientColor=none;strokeColor=#ffffff;fillColor=#232F3E;dashed=0;verticalLabelPosition=middle;verticalAlign=bottom;align=center;html=1;whiteSpace=wrap;fontSize=10;fontStyle=1;spacing=3;shape=mxgraph.aws4.productIcon;prIcon=mxgraph.aws4.ecr;" vertex="1" parent="1">
          <mxGeometry x="375" y="170" width="50" height="80" as="geometry" />
        </mxCell>
        <mxCell id="OLguAmvcdXXNK4KZTNF1-4" value="Amazon EC2" style="sketch=0;outlineConnect=0;fontColor=#232F3E;gradientColor=none;strokeColor=#ffffff;fillColor=#232F3E;dashed=0;verticalLabelPosition=middle;verticalAlign=bottom;align=center;html=1;whiteSpace=wrap;fontSize=10;fontStyle=1;spacing=3;shape=mxgraph.aws4.productIcon;prIcon=mxgraph.aws4.ec2;" vertex="1" parent="1">
          <mxGeometry x="425" y="250" width="50" height="80" as="geometry" />
        </mxCell>
      </root>
    </mxGraphModel>
  </diagram>
</mxfile>
